<svg width="134" height="134" viewBox="0 0 134 134" fill="none" xmlns="http://www.w3.org/2000/svg">
<g filter="url(#filter0_d)">
<path d="M130 63C130 68.9456 129.176 74.6993 127.635 80.1527C127.08 82.12 124.595 82.2118 123.859 84.0956C123.366 85.3579 124.669 88.4365 124.099 89.6571C123.257 91.4585 122.332 93.2156 121.328 94.9186C120.424 96.4518 116.419 94.9954 115.393 96.4424C115.218 96.691 115.039 96.9371 114.857 97.1832C113.316 99.2996 111.64 101.315 109.849 103.217C109.615 103.466 112.417 106.665 112.178 106.911L112.175 106.913C100.727 118.686 84.7163 126 67 126C49.2837 126 33.2729 118.686 21.8295 106.913L21.827 106.911C21.5293 106.608 22.078 102.172 21.7926 101.862C21.165 101.193 20.5547 100.511 19.9592 99.8144C18.9059 98.5839 17.8994 97.3116 16.9421 96.0024C16.7624 95.7563 16.5852 95.5102 16.408 95.2617C15.3818 93.8122 13.5755 96.4491 12.6723 94.9134C11.6707 93.2105 10.7454 91.4583 9.90379 89.6593V89.6569C9.33236 88.436 11.3058 85.3269 10.8121 84.0651C10.0748 82.1808 6.91916 82.1195 6.36496 80.1503C4.82441 74.6993 4 68.9456 4 63C4 51.3548 7.15984 40.4455 12.6723 31.0866C13.7527 29.2458 14.929 27.4641 16.1866 25.7512C27.6521 10.1366 46.1436 0 67 0C87.8564 0 106.348 10.1366 117.813 25.7512C119.071 27.4641 120.247 29.2458 121.328 31.0866C126.84 40.4455 130 51.3548 130 63V63Z" fill="#FF6D76"/>
<path d="M21.3791 75.0806V83.2853C21.3791 85.3599 20.5375 87.2351 19.179 88.5936C17.8206 89.952 15.9454 90.7936 13.8732 90.7936C12.4164 90.7936 11.0555 90.3777 9.90376 89.6592V89.6567C8.47887 86.6125 7.29024 83.4379 6.36493 80.1501V75.0806C6.36493 70.9363 9.72657 67.5747 13.8732 67.5747C18.0175 67.5747 21.3791 70.9363 21.3791 75.0806Z" fill="#FFDDCE"/>
<path d="M15.8272 90.5353C15.2022 90.7026 14.55 90.7912 13.8732 90.7912C12.4164 90.7912 11.0555 90.3753 9.90376 89.6567C8.47887 86.6125 7.29024 83.4379 6.36493 80.1501V75.0781C6.36493 70.9339 9.72657 67.5747 13.8732 67.5747C14.55 67.5747 15.2022 67.6633 15.8272 67.8306C12.6231 68.6895 10.2704 71.6106 10.2704 75.0781V83.2853C10.2704 86.7553 12.6231 89.6764 15.8272 90.5353Z" fill="#FFCBBE"/>
<path d="M127.635 75.0806V80.1526C126.707 83.4379 125.521 86.615 124.099 89.6567C122.947 90.3778 121.584 90.7936 120.127 90.7936C115.982 90.7936 112.621 87.432 112.621 83.2853V75.0806C112.621 70.9363 115.982 67.5747 120.127 67.5747C124.273 67.5747 127.635 70.9363 127.635 75.0806Z" fill="#FFDDCE"/>
<path d="M121.328 25.7515V94.9186C120.425 96.4517 119.457 97.9455 118.431 99.3925C118.256 99.6411 118.077 99.8872 117.895 100.133H16.1029C14.8749 98.4549 13.7306 96.7126 12.6724 94.9136V25.7515H121.328Z" fill="#FFD064"/>
<path d="M78.2196 62.3224H55.7803C51.9004 62.3224 48.7553 59.1771 48.7553 55.2975C48.7553 51.4175 51.9006 48.2725 55.7803 48.2725H78.2196C82.0995 48.2725 85.2446 51.4178 85.2446 55.2975C85.2446 59.1774 82.0995 62.3224 78.2196 62.3224Z" fill="#89A97D"/>
<path d="M19.1003 31.6108V100.133H16.1029C14.8749 98.4548 13.7306 96.7125 12.6724 94.9135V31.6108H19.1003Z" fill="#EBB044"/>
<path d="M9.67389 15.438H124.326V38.7182H9.67389V15.438Z" fill="#FFD064"/>
<path d="M9.67389 15.438H15.5688V38.7182H9.67389V15.438Z" fill="#EBB044"/>
<path d="M79.2129 93.3159C76.1187 93.3159 73.6103 95.8241 73.6103 98.9183V101.35C73.6103 104.445 76.1185 106.953 79.2126 106.953C82.3068 106.953 84.8149 104.445 84.8149 101.35V98.9183C84.8154 95.8244 82.307 93.3159 79.2129 93.3159Z" fill="#FFDDCE"/>
<path d="M80.6717 106.759C80.2066 106.885 79.7194 106.951 79.2149 106.951C76.119 106.951 73.6113 104.443 73.6113 101.35V98.916C73.6113 95.8226 76.119 93.3149 79.2149 93.3149C79.7194 93.3149 80.2066 93.3814 80.6717 93.5069C78.2822 94.1467 76.5251 96.3271 76.5251 98.916V101.35C76.5251 103.939 78.2822 106.119 80.6717 106.759Z" fill="#FFCBBE"/>
<path d="M90.4178 89.6245C87.3236 89.6245 84.8152 92.1327 84.8152 95.2268V101.35C84.8152 104.445 87.3234 106.953 90.4175 106.953C93.5117 106.953 96.0198 104.445 96.0198 101.35V95.2268C96.0203 92.133 93.5119 89.6245 90.4178 89.6245Z" fill="#FFDDCE"/>
<path d="M91.8766 106.759C91.4115 106.885 90.9242 106.951 90.4197 106.951C87.3238 106.951 84.8162 104.443 84.8162 101.35V95.2246C84.8162 92.1312 87.3238 89.6235 90.4197 89.6235C90.9242 89.6235 91.4115 89.69 91.8766 89.8155C89.487 90.4553 87.7299 92.6357 87.7299 95.2246V101.35C87.7297 103.939 89.4868 106.119 91.8766 106.759Z" fill="#FFCBBE"/>
<path d="M101.623 85.9331C98.5285 85.9331 96.0201 88.4413 96.0201 91.5354V101.35C96.0201 104.445 98.5283 106.953 101.622 106.953C104.717 106.953 107.225 104.445 107.225 101.35V91.5354C107.225 88.4415 104.717 85.9331 101.623 85.9331Z" fill="#FFDDCE"/>
<path d="M103.082 106.759C102.616 106.885 102.129 106.951 101.625 106.951C98.5288 106.951 96.0211 104.443 96.0211 101.35V91.5332C96.0211 88.4398 98.5288 85.9321 101.625 85.9321C102.129 85.9321 102.616 85.9986 103.082 86.1241C100.692 86.7639 98.9349 88.9443 98.9349 91.5332V101.35C98.9346 103.939 100.692 106.119 103.082 106.759Z" fill="#FFCBBE"/>
<path d="M118.431 95.2271V99.3934C116.541 102.061 114.447 104.576 112.175 106.914C109.39 106.592 107.224 104.224 107.224 101.35V95.2271C107.224 92.1337 109.734 89.626 112.828 89.626C115.921 89.626 118.431 92.1337 118.431 95.2271Z" fill="#FFDDCE"/>
<path d="M112.887 106.167C112.653 106.416 112.417 106.665 112.178 106.911C109.387 106.591 107.224 104.223 107.224 101.349V95.2237C107.224 92.1303 109.732 89.6226 112.828 89.6226C113.332 89.6226 113.819 89.689 114.284 89.8145C111.895 90.4544 110.138 92.6347 110.138 95.2237V101.349C110.138 103.399 111.24 105.195 112.887 106.167Z" fill="#FFCBBE"/>
<path d="M54.7871 93.3159C51.6929 93.3159 49.1845 95.8241 49.1845 98.9183V101.35C49.1845 104.445 51.6927 106.953 54.7868 106.953C57.881 106.953 60.3892 104.445 60.3892 101.35V98.9183C60.3894 95.8244 57.8812 93.3159 54.7871 93.3159Z" fill="#FFDDCE"/>
<path d="M56.2449 106.759C55.7798 106.885 55.2926 106.951 54.7881 106.951C51.6922 106.951 49.1845 104.443 49.1845 101.35V98.916C49.1845 95.8226 51.6922 93.3149 54.7881 93.3149C55.2926 93.3149 55.7798 93.3814 56.2449 93.5069C53.8554 94.1467 52.0983 96.3271 52.0983 98.916V101.35C52.0983 103.939 53.8554 106.119 56.2449 106.759Z" fill="#FFCBBE"/>
<path d="M43.5822 89.6245C40.488 89.6245 37.9796 92.1327 37.9796 95.2268V101.35C37.9796 104.445 40.4878 106.953 43.5819 106.953C46.6761 106.953 49.1843 104.445 49.1843 101.35V95.2268C49.1845 92.133 46.6763 89.6245 43.5822 89.6245Z" fill="#FFDDCE"/>
<path d="M45.04 106.759C44.5749 106.885 44.0877 106.951 43.5832 106.951C40.4873 106.951 37.9796 104.443 37.9796 101.35V95.2246C37.9796 92.1312 40.4873 89.6235 43.5832 89.6235C44.0877 89.6235 44.5749 89.69 45.04 89.8155C42.6505 90.4553 40.8934 92.6357 40.8934 95.2246V101.35C40.8934 103.939 42.6505 106.119 45.04 106.759Z" fill="#FFCBBE"/>
<path d="M32.3773 85.9331C29.2832 85.9331 26.7747 88.4413 26.7747 91.5354V101.35C26.7747 104.445 29.2829 106.953 32.377 106.953C35.4712 106.953 37.9794 104.445 37.9794 101.35V91.5354C37.9796 88.4415 35.4714 85.9331 32.3773 85.9331Z" fill="#FFDDCE"/>
<path d="M33.8361 106.759C33.371 106.885 32.8837 106.951 32.3792 106.951C29.2834 106.951 26.7757 104.443 26.7757 101.35V91.5332C26.7757 88.4398 29.2834 85.9321 32.3792 85.9321C32.8837 85.9321 33.371 85.9986 33.8361 86.1241C31.4466 86.7639 29.6894 88.9443 29.6894 91.5332V101.35C29.6892 103.939 31.4463 106.119 33.8361 106.759Z" fill="#FFCBBE"/>
<path d="M26.776 95.2271V101.35C26.776 102.898 26.1484 104.298 25.1345 105.312C24.2658 106.181 23.1141 106.764 21.8295 106.914L21.827 106.912C21.5292 106.609 21.2388 106.304 20.9534 105.994C20.3258 105.324 19.7155 104.643 19.12 103.946C18.0667 102.716 17.0602 101.443 16.1029 100.134C15.9232 99.8881 15.746 99.642 15.5688 99.3934V95.2271C15.5688 92.1337 18.079 89.626 21.1724 89.626C24.2658 89.626 26.776 92.1337 26.776 95.2271Z" fill="#FFDDCE"/>
<path d="M18.4826 95.2237V101.349C18.4826 102.287 18.7139 103.17 19.12 103.945C18.0667 102.715 17.0602 101.442 16.1029 100.133C15.9232 99.8871 15.746 99.641 15.5688 99.3925V95.2237C15.5688 92.1303 18.0765 89.6226 21.1724 89.6226C21.6769 89.6226 22.1642 89.689 22.6293 89.8145C20.2397 90.4544 18.4826 92.6347 18.4826 95.2237Z" fill="#FFCBBE"/>
</g>
<defs>
<filter id="filter0_d" x="0" y="0" width="134" height="134" filterUnits="userSpaceOnUse" color-interpolation-filters="sRGB">
<feFlood flood-opacity="0" result="BackgroundImageFix"/>
<feColorMatrix in="SourceAlpha" type="matrix" values="0 0 0 0 0 0 0 0 0 0 0 0 0 0 0 0 0 0 127 0"/>
<feOffset dy="4"/>
<feGaussianBlur stdDeviation="2"/>
<feColorMatrix type="matrix" values="0 0 0 0 0 0 0 0 0 0 0 0 0 0 0 0 0 0 0.25 0"/>
<feBlend mode="normal" in2="BackgroundImageFix" result="effect1_dropShadow"/>
<feBlend mode="normal" in="SourceGraphic" in2="effect1_dropShadow" result="shape"/>
</filter>
</defs>
</svg>
