<svg width="134" height="138" viewBox="0 0 134 138" fill="none" xmlns="http://www.w3.org/2000/svg">
<g filter="url(#filter0_d)">
<circle cx="67" cy="67" r="63" fill="#F6DA73"/>
<path d="M112 57.3267V115C111.247 116.278 110.441 117.524 109.585 118.73C109.439 118.938 109.289 119.143 109.138 119.348H24.261C23.237 117.949 22.2829 116.496 21.4005 114.996V57.3267H112Z" fill="#FFD064"/>
<path d="M76.0554 87.8207H57.3449C54.1097 87.8207 51.4873 85.198 51.4873 81.9631C51.4873 78.7279 54.11 76.1055 57.3449 76.1055H76.0554C79.2906 76.1055 81.913 78.7281 81.913 81.9631C81.913 85.1983 79.2906 87.8207 76.0554 87.8207Z" fill="#89A97D"/>
<path d="M26.7603 62.2124V119.348H24.261C23.237 117.949 22.2829 116.496 21.4005 114.996V62.2124H26.7603Z" fill="#EBB044"/>
<path d="M21.401 57.3267H112V72.9462H21.401V57.3267Z" fill="#EBB044"/>
<g clip-path="url(#clip0)">
<g clip-path="url(#clip1)">
<path d="M60.562 60.9199C59.1924 61.0338 57.9405 61.6329 56.8715 62.5994C54.9697 64.3185 52.4601 65.1182 49.9144 64.8163C48.4833 64.6466 47.1156 64.8822 45.9326 65.5817C41.932 67.9467 41.5583 74.7173 45.0978 80.7041C48.6373 86.6909 54.7496 89.6269 58.7501 87.2618C59.1194 87.0435 59.4572 86.787 59.7639 86.4971C60.1979 86.0868 60.79 85.8982 61.3814 85.9817C61.7992 86.0406 62.2231 86.0544 62.6506 86.0189C67.282 85.6335 70.5688 79.7024 69.9921 72.7715C69.4154 65.8407 65.1933 60.5345 60.562 60.9199Z" fill="#E56353"/>
<path d="M69.9925 72.7751C70.5651 79.7003 67.2791 85.6353 62.6507 86.0183C62.221 86.054 61.7984 86.0441 61.381 85.9818C60.7895 85.8956 60.1987 86.0838 59.7661 86.4964C59.455 86.7908 59.1162 87.0433 58.7516 87.2608C55.8133 88.9996 51.732 87.8778 48.3829 84.7875C51.2391 86.6032 54.3141 87.0407 56.6552 85.6512C57.0263 85.4317 57.3631 85.1725 57.6698 84.8868C58.1023 84.4742 58.6996 84.2839 59.2911 84.3702C59.7065 84.4258 60.1311 84.4423 60.5608 84.4066C65.1893 84.0236 68.4752 78.0887 67.9005 71.1569C67.5691 67.2351 66.0803 63.8338 64.0019 61.6906C67.1279 63.377 69.5663 67.6254 69.9925 72.7751Z" fill="#D15241"/>
<path d="M53.7097 64.7023C52.09 65.2584 50.4857 64.8707 50.3922 65.3087C50.2529 65.7145 52.1239 67.033 54.2361 66.3542C56.3519 65.6858 57.1146 63.528 56.7665 63.2776C56.4367 62.9744 55.3525 64.2188 53.7097 64.7023Z" fill="#D15241"/>
<path d="M53.3517 55.677C50.0962 59.7753 53.1867 65.331 53.2231 65.3949C53.3874 65.6822 53.7264 65.8069 54.0303 65.7101C54.0751 65.6958 54.1192 65.6768 54.1616 65.6523C54.4923 65.4647 54.6083 65.0443 54.421 64.7136C54.2959 64.4928 51.7679 59.9136 54.4347 56.5405C54.5811 56.3553 54.637 56.1137 54.5653 55.8887C54.3954 55.3555 53.6996 55.2388 53.3517 55.677Z" fill="#44C4A1"/>
<path d="M52.5439 61.0436C52.5439 61.0436 38.038 59.6066 38.4003 73.579C38.4003 73.579 50.193 72.0934 52.5439 61.0436Z" fill="#44C4A1"/>
<path d="M52.5439 61.0438C52.5439 61.0438 41.3887 64.3848 39.3494 72.4457C39.3494 72.4457 41.4404 66.178 52.5439 61.0438Z" fill="#3EA69B"/>
<path opacity="0.15" d="M60.1838 64.2785C59.5878 63.7207 59.7842 62.7231 60.5642 62.4822C61.3517 62.2389 62.2614 62.1956 62.9186 62.8777C64.3386 64.3515 66.939 69.3436 65.9506 73.6975C65.2723 76.6851 64.4462 79.3843 62.7875 81.0919C61.9943 81.9084 60.6497 81.067 61.0284 79.9935C62.4783 75.8837 64.3801 68.2062 60.1838 64.2785Z" fill="#EBF0F3"/>
</g>
<g clip-path="url(#clip2)">
<path d="M109.787 77.4125C110.041 77.1748 110.383 77.041 110.776 77.0432C110.906 77.0437 111.043 77.0598 111.184 77.0913C111.301 77.1177 111.416 77.1578 111.528 77.2056C111.632 77.2471 111.732 77.2998 111.832 77.3561L111.948 76.0194C112.045 74.8974 111.616 73.7937 110.786 73.0321L101.224 62.2733C100.872 62.5147 100.389 62.5656 99.8682 62.354C98.9051 61.9618 98.1939 60.8415 98.2798 59.8512C98.3019 59.5963 98.3758 59.3766 98.488 59.1953L96.8513 57.3538C95.6376 56.2508 94.1981 55.9088 93.1659 56.2575L83.9215 59.7677C83.0891 60.0445 82.5212 60.8157 82.4433 61.7132C82.4427 61.7204 82.4429 61.7186 82.4429 61.7186L81.6253 71.1409C81.9068 71.1141 82.2127 71.1521 82.5335 71.283C83.6503 71.738 84.4751 73.037 84.3755 74.1846C84.2759 75.3322 83.2897 75.8941 82.1729 75.4391C81.8521 75.3088 81.5606 75.1033 81.3029 74.8566L81.1906 76.1509C81.103 77.1609 81.7141 78.1007 82.6724 78.4304L108.119 88.3894C109.478 88.8569 110.915 87.9236 111.039 86.4917L111.472 81.5009C110.918 81.3612 110.4 80.9997 110.009 80.5197C110 80.5093 109.994 80.4972 109.985 80.4863C109.898 80.3762 109.816 80.2623 109.742 80.142C109.718 80.1025 109.701 80.0594 109.678 80.0189C109.626 79.924 109.572 79.8301 109.53 79.7306C109.497 79.6523 109.475 79.5702 109.448 79.4895C109.427 79.4244 109.398 79.3598 109.382 79.2939C109.344 79.1447 109.319 78.9936 109.307 78.8419C109.296 78.689 109.299 78.5433 109.315 78.4055C109.347 78.1298 109.433 77.8859 109.562 77.6837C109.627 77.5819 109.702 77.4914 109.787 77.4125Z" fill="#FFE998"/>
<path d="M111.185 77.0915C111.409 77.1422 111.625 77.2387 111.832 77.3562L111.948 76.0189C112.038 74.9808 111.391 74.0215 110.395 73.7162L99.2228 69.3057C99.2234 69.3679 99.23 69.4306 99.2247 69.4916C99.1388 70.4819 98.2883 70.9663 97.3253 70.5735C96.3622 70.1813 95.651 69.0609 95.7369 68.0707C95.741 68.024 95.7547 67.9836 95.7622 67.939L83.4912 63.095C82.8022 62.8995 82.5044 62.3366 82.482 61.7257L82.4439 61.7134L81.6259 71.1404C81.9074 71.1136 82.2134 71.1516 82.5342 71.2825C83.651 71.7375 84.4757 73.0365 84.3761 74.1841C84.2765 75.3318 83.2904 75.8937 82.1736 75.4387C81.8527 75.3084 81.5613 75.1028 81.3035 74.8562L81.1912 76.1504C81.1036 77.1604 81.7147 78.1003 82.673 78.43L108.12 88.3889C109.479 88.8565 110.915 87.9231 111.04 86.4913L111.473 81.5004C110.364 81.2209 109.399 80.0454 109.307 78.8414C109.214 77.6197 110.054 76.836 111.185 77.0915Z" fill="#FCDF76"/>
<path d="M96.7978 75.6532C96.6807 77.0019 95.5221 77.6615 94.2096 77.1275C92.8971 76.5928 91.9281 75.0667 92.0451 73.718C92.1622 72.3693 93.3208 71.7096 94.6333 72.2437C95.9458 72.7778 96.9148 74.3045 96.7978 75.6532Z" fill="#F4C44E"/>
<path d="M94.6333 72.2438C93.6598 71.847 92.7724 72.1106 92.3308 72.8229C92.6229 73.8339 93.4055 74.7771 94.3791 75.1739C95.3526 75.5706 96.24 75.307 96.6816 74.5948C96.3895 73.5838 95.6069 72.6399 94.6333 72.2438Z" fill="#EEAF4B"/>
<path d="M87.319 68.0596C87.2605 68.7339 86.6808 69.064 86.0252 68.7967C85.369 68.5294 84.8848 67.7664 84.9433 67.092C85.0018 66.4177 85.5814 66.0876 86.2371 66.3548C86.8927 66.6221 87.3775 67.3852 87.319 68.0596Z" fill="#F4C44E"/>
<path d="M99.2248 69.4917C99.1389 70.4814 98.2884 70.9659 97.3253 70.5736C96.3622 70.1814 95.651 69.0611 95.7369 68.0708C95.8228 67.0811 96.6733 66.5967 97.6364 66.9889C98.5989 67.3811 99.3107 68.5015 99.2248 69.4917Z" fill="#F4C44E"/>
</g>
<g clip-path="url(#clip3)">
<path d="M79.4276 77.0253C80.0074 77.5366 80.7327 77.9267 81.675 78.0327C83.2948 78.2151 84.9044 77.5027 85.6877 76.1322C86.5654 74.5974 86.2623 72.7166 85.0921 71.453C85.758 69.9883 85.1471 68.2129 83.6578 67.4031C83.6535 67.4008 83.649 67.3989 83.6447 67.3966C83.7872 67.1976 83.895 66.9638 83.9513 66.6893C84.1097 65.918 83.7817 65.0819 83.1148 64.6138C82.5679 64.2302 81.9233 64.1402 81.3539 64.2934C81.1661 63.7903 80.8038 63.3419 80.2851 63.0599C79.174 62.4557 77.8017 62.8333 77.22 63.9033C77.2182 63.9066 77.2173 63.9104 77.2155 63.9137C75.8112 63.278 74.157 63.7835 73.4363 65.1091C73.3261 65.3118 73.2468 65.5227 73.1912 65.7369C71.5485 64.9274 69.5736 65.5009 68.7234 67.0645C68.4354 67.5944 68.3157 68.1705 68.3404 68.7384C67.634 68.8608 66.9967 69.2822 66.6359 69.9457C66.1315 70.8734 66.3203 71.996 67.0209 72.7561C64.8499 76.4844 65.0385 79.4831 66.1175 83.9709C66.1369 84.0512 66.1565 84.1322 66.1768 84.2129C66.1812 84.2303 66.1856 84.2476 66.19 84.2649C66.6559 86.0994 69.7117 86.5498 70.0048 84.7046C71.5732 74.8473 79.9432 80.9463 79.9432 80.9463C79.9432 80.9463 81.5605 78.5861 79.2974 77.2038C79.3344 77.1429 79.3715 77.0817 79.4085 77.0208C79.4151 77.0228 79.421 77.0233 79.4276 77.0253Z" fill="#88C057"/>
<path d="M66.1905 84.2652C66.1861 84.2479 66.1816 84.2306 66.1772 84.2133C66.157 84.1325 66.1372 84.052 66.118 83.9713C65.0386 79.4832 64.85 76.4846 67.0214 72.7564C66.3208 71.9963 66.132 70.8738 66.6364 69.946C66.9974 69.2822 67.6344 68.8611 68.3409 68.7388C68.3166 68.1711 68.4358 67.5947 68.7239 67.0649C69.5741 65.5012 71.5492 64.9273 73.1916 65.7373C73.2473 65.5231 73.3265 65.3122 73.4367 65.1095C74.0093 64.0564 75.1706 63.5236 76.3281 63.6661C76.3733 63.4324 76.4024 63.1878 76.4062 62.9295C76.4259 61.6401 75.8431 60.5068 74.9263 60.1799C74.1709 59.9102 73.3864 60.1925 72.7767 60.8144C72.3986 60.1183 71.8306 59.6188 71.1374 59.4991C69.6516 59.2425 68.3114 60.7644 68.155 62.7639C68.1544 62.77 68.1552 62.7757 68.1547 62.7818C66.4545 62.668 65.0816 64.3315 65.0316 66.4782C65.0245 66.7913 65.0487 67.0957 65.0955 67.3901C63.2681 67.1715 61.8842 68.7719 61.9672 70.8733C61.9936 71.5449 62.1703 72.182 62.448 72.7415C61.9692 73.1155 61.6879 73.7427 61.7238 74.4823C61.7717 75.4755 62.3823 76.3816 63.1826 76.8098C63.1431 80.2219 64.3036 82.1848 66.3286 84.6642C66.3499 84.6901 66.3712 84.7161 66.3927 84.7416C66.3071 84.5939 66.2342 84.4381 66.1905 84.2652Z" fill="#659C35"/>
<path d="M73.8684 72.5758C73.9218 72.5367 73.9633 72.4879 73.9936 72.4341C74.7029 71.8589 75.4097 71.4369 76.0753 71.1262C78.1976 71.7838 79.3286 73.1448 79.3534 73.1754C79.3964 73.2296 79.4486 73.2719 79.505 73.3025C79.6693 73.3919 79.8761 73.385 80.0301 73.2695C80.2379 73.1131 80.2712 72.8169 80.1052 72.6085C80.0593 72.5515 79.1449 71.427 77.3869 70.625C78.6659 70.2441 79.5969 70.262 79.7339 70.2683C80.5097 70.3194 81.2148 71.1821 81.4216 71.5108C81.4685 71.5863 81.5329 71.6448 81.6068 71.6849C81.7527 71.7643 81.9347 71.7695 82.0847 71.6828C82.3106 71.5521 82.3803 71.2641 82.2395 71.0379C82.2061 70.9835 81.5368 69.9277 80.4954 69.5005C80.7607 69.2129 81.1122 69.0109 81.2736 68.941C81.5145 68.8387 81.6187 68.5615 81.5062 68.3219C81.3945 68.0828 81.1077 67.9705 80.8664 68.0736C80.8214 68.0923 79.8725 68.503 79.4261 69.3271C78.6058 69.3556 76.3976 69.5934 74.0618 71.2142C73.9359 71.3013 73.8073 71.3986 73.6788 71.4965C72.9311 70.0967 73.8644 68.8371 73.911 68.7767C74.0689 68.5728 74.0247 68.2766 73.8115 68.1144C73.5988 67.9524 73.2962 67.986 73.1373 68.1898C72.6078 68.8686 71.9495 70.5025 72.9386 72.1102C72.132 72.8369 71.3075 73.7797 70.5442 75.0066C70.514 75.0418 70.4912 75.0795 70.4732 75.1209C69.9458 75.985 69.4528 76.9935 69.0147 78.1533C68.6294 77.5721 68.61 77.0178 68.6096 76.9808C68.6066 76.7209 68.391 76.5051 68.1263 76.4976C67.8606 76.49 67.6447 76.6948 67.6455 76.9557C67.6456 77.0095 67.6619 78.197 68.652 79.1906C68.0756 80.9841 67.6313 83.1082 67.4042 85.6397C67.7067 85.7801 68.0318 85.8605 68.3494 85.8766C68.3499 85.8726 68.3523 85.8692 68.3531 85.8648C68.5818 83.2256 69.0417 81.0412 69.6456 79.2185C69.6492 79.2077 69.6535 79.1978 69.6565 79.1872C70.1117 77.821 70.6482 76.6625 71.2351 75.6827C72.3662 75.0264 74.1442 75.942 74.1624 75.9513C74.4 76.0758 74.6895 75.9919 74.8095 75.7631C74.9285 75.536 74.8365 75.2527 74.6034 75.126C74.6017 75.1251 74.6 75.1241 74.5983 75.1232C74.5283 75.0862 73.2974 74.45 72.0149 74.5079C72.5753 73.758 73.1632 73.1436 73.7543 72.6352C73.7949 72.6205 73.8334 72.6015 73.8684 72.5758Z" fill="#659C35"/>
</g>
<path d="M38.5275 70.7623C38.5275 70.7623 36.5822 64.1926 42.2847 61.7723C42.2847 61.7723 43.6103 61.106 44.4696 62.0922C45.3142 63.0623 44.6957 64.5961 43.4103 65.1129C42.2509 65.5793 40.5738 66.9848 38.5275 70.7623Z" fill="#88C057"/>
<path d="M38.5275 70.7623C38.5275 70.7623 33.7778 65.8667 29.3398 69.5001C29.3398 69.5001 27.6419 70.6403 27.7776 72.0916C27.9034 73.4413 29.6228 73.9097 30.5638 72.9346C31.5954 71.8661 33.8165 70.6062 38.5275 70.7623Z" fill="#88C057"/>
<path d="M42.5489 61.9664C42.5489 61.9664 42.5966 61.9454 42.662 61.9186C42.5855 61.7727 42.4998 61.6284 42.3919 61.4899C41.3991 60.2129 40.2473 60.7448 40.2473 60.7448C35.2154 62.5217 38.2157 70.3702 38.2157 70.3702C38.3189 70.055 38.4233 69.7622 38.5271 69.4795C38.3127 67.3977 38.5508 63.6634 42.5489 61.9664Z" fill="#88C057"/>
<path d="M29.3399 69.4995C32.7631 66.6965 36.3703 68.9682 37.8413 70.1536C37.8792 70.1617 37.9137 70.1674 37.9516 70.1755C37.9516 70.1755 32.5604 63.7543 28.9484 67.1376C28.9484 67.1376 27.5231 68.1466 27.9048 69.8289C27.9703 70.1178 28.0831 70.3812 28.2269 70.6135C28.6902 69.9369 29.3399 69.4995 29.3399 69.4995Z" fill="#A4E869"/>
<path d="M32.6487 61.5098C31.1284 62.9223 32.2396 65.4827 32.2396 65.4827C32.5758 65.9458 32.9528 66.3842 33.3486 66.8008C35.4267 67.6394 37.3995 69.6292 38.27 70.5906C38.405 70.6685 38.5235 70.7354 38.6091 70.7826C38.2704 69.8376 37.3961 67.1135 37.5997 64.7042C37.364 64.034 37.084 63.3811 36.7505 62.7902C34.9635 59.6229 32.6487 61.5098 32.6487 61.5098Z" fill="#659C35"/>
<path d="M38.5275 70.7623C38.5275 70.7623 36.5822 64.1926 42.2847 61.7723C42.2847 61.7723 43.6103 61.106 44.4696 62.0922C45.3142 63.0623 44.6957 64.5961 43.4103 65.1129C42.2509 65.5793 40.5738 66.9848 38.5275 70.7623Z" fill="#A4E869"/>
<path d="M38.0957 70.3132C38.3161 70.5072 38.4374 70.6319 38.4374 70.6319C38.4374 70.6319 38.3642 70.3829 38.2883 69.9678C38.2244 70.0802 38.1608 70.1937 38.0957 70.3132Z" fill="#F2681C"/>
<path d="M41.8924 68.1026C41.3989 67.7707 40.8578 67.647 40.32 67.6408C39.7351 68.4187 39.1062 69.3962 38.4374 70.6316C36.8856 70.5803 35.6088 70.6842 34.551 70.8827C34.189 71.4331 33.948 72.0741 34.0193 72.8023C34.2434 75.0876 45.1746 87.6465 49.3618 90.5359C49.7557 90.8077 50.1826 90.5524 50.1302 90.0772C49.5736 85.0203 43.7972 69.3842 41.8924 68.1026Z" fill="#ED8F20"/>
<path d="M41.3732 69.2762C40.7729 70.1324 39.9018 70.8479 38.7844 71.4017C38.548 71.5188 38.4515 71.8053 38.5687 72.0417C38.6858 72.2781 38.9723 72.3746 39.2087 72.2574C40.4709 71.6317 41.4625 70.8132 42.1558 69.8244C42.1899 69.7753 42.2141 69.7223 42.228 69.6672C42.2751 69.4806 42.2055 69.2764 42.0386 69.1589C41.8226 69.0079 41.5247 69.0602 41.3732 69.2762Z" fill="#DD7017"/>
</g>
<path d="M10 60.9619L83.641 0.000119135L96.0193 14.953L22.3783 75.9148L10 60.9619Z" fill="#FFD064"/>
<path d="M10 60.9619L13.7863 57.8275L26.1647 72.7804L22.3783 75.9148L10 60.9619Z" fill="#EBB044"/>
</g>
<defs>
<filter id="filter0_d" x="0" y="0" width="134" height="138" filterUnits="userSpaceOnUse" color-interpolation-filters="sRGB">
<feFlood flood-opacity="0" result="BackgroundImageFix"/>
<feColorMatrix in="SourceAlpha" type="matrix" values="0 0 0 0 0 0 0 0 0 0 0 0 0 0 0 0 0 0 127 0"/>
<feOffset dy="4"/>
<feGaussianBlur stdDeviation="2"/>
<feColorMatrix type="matrix" values="0 0 0 0 0 0 0 0 0 0 0 0 0 0 0 0 0 0 0.25 0"/>
<feBlend mode="normal" in2="BackgroundImageFix" result="effect1_dropShadow"/>
<feBlend mode="normal" in="SourceGraphic" in2="effect1_dropShadow" result="shape"/>
</filter>
<clipPath id="clip0">
<rect width="85" height="37" fill="white" transform="translate(27 36)"/>
</clipPath>
<clipPath id="clip1">
<rect width="32" height="32" fill="white" transform="translate(34 61.7153) rotate(-17.6745)"/>
</clipPath>
<clipPath id="clip2">
<rect width="31" height="31" fill="white" transform="translate(82.8281 55.1455) rotate(4.95904)"/>
</clipPath>
<clipPath id="clip3">
<rect width="27" height="26" fill="white" transform="translate(67.568 56.1455) rotate(28.5337)"/>
</clipPath>
</defs>
</svg>
