<svg width="411" height="526" viewBox="0 0 411 526" fill="none" xmlns="http://www.w3.org/2000/svg">
<rect x="-94.3119" y="24.5083" width="675.417" height="383.73" transform="rotate(2.24575 -94.3119 24.5083)" fill="white"/>
<path d="M74.3658 481V466.72H85.0858V481H83.3058V468.3H76.1658V481H74.3658ZM98.0747 475.62C98.0747 477.393 97.6214 478.767 96.7147 479.74C95.8214 480.713 94.608 481.2 93.0747 481.2C92.128 481.2 91.2814 480.987 90.5347 480.56C89.8014 480.12 89.2214 479.487 88.7947 478.66C88.368 477.82 88.1547 476.807 88.1547 475.62C88.1547 473.847 88.6014 472.48 89.4947 471.52C90.388 470.56 91.6014 470.08 93.1347 470.08C94.108 470.08 94.9614 470.3 95.6947 470.74C96.4414 471.167 97.0214 471.793 97.4347 472.62C97.8614 473.433 98.0747 474.433 98.0747 475.62ZM89.9747 475.62C89.9747 476.887 90.2214 477.893 90.7147 478.64C91.2214 479.373 92.0214 479.74 93.1147 479.74C94.1947 479.74 94.988 479.373 95.4947 478.64C96.0014 477.893 96.2547 476.887 96.2547 475.62C96.2547 474.353 96.0014 473.36 95.4947 472.64C94.988 471.92 94.188 471.56 93.0947 471.56C92.0014 471.56 91.208 471.92 90.7147 472.64C90.2214 473.36 89.9747 474.353 89.9747 475.62ZM112.364 470.28V481H110.784V474.16C110.784 473.88 110.791 473.587 110.804 473.28C110.831 472.973 110.857 472.673 110.884 472.38H110.824L107.324 481H105.844L102.444 472.38H102.384C102.424 472.98 102.444 473.593 102.444 474.22V481H100.864V470.28H103.204L106.584 478.9L110.024 470.28H112.364ZM125.106 475.62C125.106 477.393 124.653 478.767 123.746 479.74C122.853 480.713 121.639 481.2 120.106 481.2C119.159 481.2 118.313 480.987 117.566 480.56C116.833 480.12 116.253 479.487 115.826 478.66C115.399 477.82 115.186 476.807 115.186 475.62C115.186 473.847 115.633 472.48 116.526 471.52C117.419 470.56 118.633 470.08 120.166 470.08C121.139 470.08 121.993 470.3 122.726 470.74C123.473 471.167 124.053 471.793 124.466 472.62C124.893 473.433 125.106 474.433 125.106 475.62ZM117.006 475.62C117.006 476.887 117.253 477.893 117.746 478.64C118.253 479.373 119.053 479.74 120.146 479.74C121.226 479.74 122.019 479.373 122.526 478.64C123.033 477.893 123.286 476.887 123.286 475.62C123.286 474.353 123.033 473.36 122.526 472.64C122.019 471.92 121.219 471.56 120.126 471.56C119.033 471.56 118.239 471.92 117.746 472.64C117.253 473.36 117.006 474.353 117.006 475.62ZM134.435 470.28V471.76H129.655V481H127.895V470.28H134.435ZM140.608 470.1C141.914 470.1 142.881 470.387 143.508 470.96C144.134 471.533 144.448 472.447 144.448 473.7V481H143.168L142.828 479.48H142.748C142.281 480.067 141.788 480.5 141.268 480.78C140.761 481.06 140.054 481.2 139.148 481.2C138.174 481.2 137.368 480.947 136.728 480.44C136.088 479.92 135.768 479.113 135.768 478.02C135.768 476.953 136.188 476.133 137.028 475.56C137.868 474.973 139.161 474.653 140.908 474.6L142.728 474.54V473.9C142.728 473.007 142.534 472.387 142.148 472.04C141.761 471.693 141.214 471.52 140.508 471.52C139.948 471.52 139.414 471.607 138.908 471.78C138.401 471.94 137.928 472.127 137.488 472.34L136.948 471.02C137.414 470.767 137.968 470.553 138.608 470.38C139.248 470.193 139.914 470.1 140.608 470.1ZM141.128 475.82C139.794 475.873 138.868 476.087 138.348 476.46C137.841 476.833 137.588 477.36 137.588 478.04C137.588 478.64 137.768 479.08 138.128 479.36C138.501 479.64 138.974 479.78 139.548 479.78C140.454 479.78 141.208 479.533 141.808 479.04C142.408 478.533 142.708 477.76 142.708 476.72V475.76L141.128 475.82ZM156.439 465.84C156.345 466.84 156.005 467.6 155.419 468.12C154.845 468.627 153.925 468.88 152.659 468.88C151.352 468.88 150.425 468.627 149.879 468.12C149.345 467.613 149.045 466.853 148.979 465.84H150.619C150.685 466.56 150.872 467.047 151.179 467.3C151.499 467.54 152.005 467.66 152.699 467.66C153.312 467.66 153.792 467.533 154.139 467.28C154.499 467.013 154.712 466.533 154.779 465.84H156.439ZM149.419 476.82C149.419 476.98 149.412 477.22 149.399 477.54C149.385 477.86 149.365 478.18 149.339 478.5C149.325 478.82 149.312 479.073 149.299 479.26L155.039 470.28H157.199V481H155.559V474.68C155.559 474.467 155.559 474.187 155.559 473.84C155.572 473.493 155.585 473.153 155.599 472.82C155.612 472.473 155.625 472.213 155.639 472.04L149.939 481H147.759V470.28H149.419V476.82ZM172.95 481H171.17V471.74H168.01C167.837 473.993 167.597 475.813 167.29 477.2C166.983 478.573 166.577 479.573 166.07 480.2C165.563 480.827 164.923 481.14 164.15 481.14C163.977 481.14 163.803 481.127 163.63 481.1C163.47 481.087 163.337 481.053 163.23 481V479.68C163.31 479.707 163.397 479.727 163.49 479.74C163.583 479.753 163.677 479.76 163.77 479.76C164.49 479.76 165.063 478.993 165.49 477.46C165.93 475.927 166.263 473.533 166.49 470.28H172.95V481ZM190.272 475.62C190.272 477.393 189.846 478.767 188.992 479.74C188.139 480.713 186.986 481.2 185.532 481.2C184.172 481.2 183.072 480.773 182.232 479.92C181.406 479.067 180.939 477.833 180.832 476.22H178.112V481H176.352V470.28H178.112V474.74H180.852C180.999 473.233 181.486 472.08 182.312 471.28C183.139 470.48 184.226 470.08 185.572 470.08C186.492 470.08 187.306 470.3 188.012 470.74C188.719 471.167 189.272 471.793 189.672 472.62C190.072 473.433 190.272 474.433 190.272 475.62ZM182.632 475.62C182.632 476.967 182.866 477.993 183.332 478.7C183.799 479.393 184.539 479.74 185.552 479.74C186.579 479.74 187.319 479.393 187.772 478.7C188.226 477.993 188.452 476.967 188.452 475.62C188.452 474.273 188.219 473.26 187.752 472.58C187.299 471.9 186.566 471.56 185.552 471.56C184.539 471.56 183.799 471.9 183.332 472.58C182.866 473.26 182.632 474.273 182.632 475.62ZM201.031 470.28V479.52H202.591V484.72H200.891V481H193.431V484.72H191.751V479.52H192.611C193.531 478.253 194.218 476.813 194.671 475.2C195.138 473.573 195.378 471.933 195.391 470.28H201.031ZM196.951 471.66C196.898 472.567 196.758 473.507 196.531 474.48C196.304 475.44 196.011 476.36 195.651 477.24C195.304 478.12 194.898 478.88 194.431 479.52H199.331V471.66H196.951ZM205.352 481H203.312L206.372 476.5C205.959 476.393 205.559 476.227 205.172 476C204.786 475.76 204.472 475.433 204.232 475.02C203.992 474.593 203.872 474.067 203.872 473.44C203.872 472.413 204.219 471.633 204.912 471.1C205.606 470.553 206.526 470.28 207.672 470.28H212.472V481H210.712V476.74H208.112L205.352 481ZM205.572 473.46C205.572 474.073 205.799 474.533 206.252 474.84C206.719 475.133 207.366 475.28 208.192 475.28H210.712V471.74H207.852C207.039 471.74 206.452 471.9 206.092 472.22C205.746 472.54 205.572 472.953 205.572 473.46ZM227.364 470.28V481H225.784V474.16C225.784 473.88 225.791 473.587 225.804 473.28C225.831 472.973 225.857 472.673 225.884 472.38H225.824L222.324 481H220.844L217.444 472.38H217.384C217.424 472.98 217.444 473.593 217.444 474.22V481H215.864V470.28H218.204L221.584 478.9L225.024 470.28H227.364ZM236.626 476.82C236.626 476.98 236.619 477.22 236.606 477.54C236.592 477.86 236.572 478.18 236.546 478.5C236.532 478.82 236.519 479.073 236.506 479.26L242.246 470.28H244.406V481H242.766V474.68C242.766 474.467 242.766 474.187 242.766 473.84C242.779 473.493 242.792 473.153 242.806 472.82C242.819 472.473 242.832 472.213 242.846 472.04L237.146 481H234.966V470.28H236.626V476.82ZM261.057 470.28V481H259.297V471.78H253.757V481H251.997V470.28H261.057ZM269.577 470.08C270.897 470.08 271.957 470.54 272.757 471.46C273.571 472.38 273.977 473.767 273.977 475.62C273.977 477.447 273.571 478.833 272.757 479.78C271.957 480.727 270.891 481.2 269.557 481.2C268.731 481.2 268.044 481.047 267.497 480.74C266.964 480.42 266.544 480.053 266.237 479.64H266.117C266.144 479.867 266.171 480.153 266.197 480.5C266.224 480.847 266.237 481.147 266.237 481.4V485.8H264.477V470.28H265.917L266.157 471.74H266.237C266.557 471.273 266.977 470.88 267.497 470.56C268.017 470.24 268.711 470.08 269.577 470.08ZM269.257 471.56C268.164 471.56 267.391 471.867 266.937 472.48C266.497 473.093 266.264 474.027 266.237 475.28V475.62C266.237 476.94 266.451 477.96 266.877 478.68C267.317 479.387 268.124 479.74 269.297 479.74C269.951 479.74 270.484 479.56 270.897 479.2C271.324 478.84 271.637 478.353 271.837 477.74C272.051 477.113 272.157 476.4 272.157 475.6C272.157 474.373 271.917 473.393 271.437 472.66C270.971 471.927 270.244 471.56 269.257 471.56ZM278.442 476.82C278.442 476.98 278.435 477.22 278.422 477.54C278.409 477.86 278.389 478.18 278.362 478.5C278.349 478.82 278.335 479.073 278.322 479.26L284.062 470.28H286.222V481H284.582V474.68C284.582 474.467 284.582 474.187 284.582 473.84C284.595 473.493 284.609 473.153 284.622 472.82C284.635 472.473 284.649 472.213 284.662 472.04L278.962 481H276.782V470.28H278.442V476.82ZM294.734 470.08C296.054 470.08 297.114 470.54 297.914 471.46C298.727 472.38 299.134 473.767 299.134 475.62C299.134 477.447 298.727 478.833 297.914 479.78C297.114 480.727 296.047 481.2 294.714 481.2C293.887 481.2 293.2 481.047 292.654 480.74C292.12 480.42 291.7 480.053 291.394 479.64H291.274C291.3 479.867 291.327 480.153 291.354 480.5C291.38 480.847 291.394 481.147 291.394 481.4V485.8H289.634V470.28H291.074L291.314 471.74H291.394C291.714 471.273 292.134 470.88 292.654 470.56C293.174 470.24 293.867 470.08 294.734 470.08ZM294.414 471.56C293.32 471.56 292.547 471.867 292.094 472.48C291.654 473.093 291.42 474.027 291.394 475.28V475.62C291.394 476.94 291.607 477.96 292.034 478.68C292.474 479.387 293.28 479.74 294.454 479.74C295.107 479.74 295.64 479.56 296.054 479.2C296.48 478.84 296.794 478.353 296.994 477.74C297.207 477.113 297.314 476.4 297.314 475.6C297.314 474.373 297.074 473.393 296.594 472.66C296.127 471.927 295.4 471.56 294.414 471.56ZM311.258 475.62C311.258 477.393 310.805 478.767 309.898 479.74C309.005 480.713 307.792 481.2 306.258 481.2C305.312 481.2 304.465 480.987 303.718 480.56C302.985 480.12 302.405 479.487 301.978 478.66C301.552 477.82 301.338 476.807 301.338 475.62C301.338 473.847 301.785 472.48 302.678 471.52C303.572 470.56 304.785 470.08 306.318 470.08C307.292 470.08 308.145 470.3 308.878 470.74C309.625 471.167 310.205 471.793 310.618 472.62C311.045 473.433 311.258 474.433 311.258 475.62ZM303.158 475.62C303.158 476.887 303.405 477.893 303.898 478.64C304.405 479.373 305.205 479.74 306.298 479.74C307.378 479.74 308.172 479.373 308.678 478.64C309.185 477.893 309.438 476.887 309.438 475.62C309.438 474.353 309.185 473.36 308.678 472.64C308.172 471.92 307.372 471.56 306.278 471.56C305.185 471.56 304.392 471.92 303.898 472.64C303.405 473.36 303.158 474.353 303.158 475.62ZM322.008 470.28V479.52H323.568V484.72H321.868V481H314.408V484.72H312.728V479.52H313.588C314.508 478.253 315.194 476.813 315.648 475.2C316.114 473.573 316.354 471.933 316.368 470.28H322.008ZM317.928 471.66C317.874 472.567 317.734 473.507 317.508 474.48C317.281 475.44 316.988 476.36 316.628 477.24C316.281 478.12 315.874 478.88 315.408 479.52H320.308V471.66H317.928ZM329.809 470.08C330.729 470.08 331.515 470.28 332.169 470.68C332.835 471.08 333.342 471.647 333.689 472.38C334.049 473.1 334.229 473.947 334.229 474.92V475.98H326.889C326.915 477.193 327.222 478.12 327.809 478.76C328.409 479.387 329.242 479.7 330.309 479.7C330.989 479.7 331.589 479.64 332.109 479.52C332.642 479.387 333.189 479.2 333.749 478.96V480.5C333.202 480.74 332.662 480.913 332.129 481.02C331.595 481.14 330.962 481.2 330.229 481.2C329.215 481.2 328.315 480.993 327.529 480.58C326.755 480.167 326.149 479.553 325.709 478.74C325.282 477.913 325.069 476.907 325.069 475.72C325.069 474.547 325.262 473.54 325.649 472.7C326.049 471.86 326.602 471.213 327.309 470.76C328.029 470.307 328.862 470.08 329.809 470.08ZM329.789 471.52C328.949 471.52 328.282 471.793 327.789 472.34C327.309 472.873 327.022 473.62 326.929 474.58H332.389C332.375 473.673 332.162 472.94 331.749 472.38C331.335 471.807 330.682 471.52 329.789 471.52ZM337.418 478.62C337.764 478.62 338.058 478.747 338.298 479C338.551 479.24 338.678 479.533 338.678 479.88C338.678 480.227 338.551 480.527 338.298 480.78C338.058 481.033 337.764 481.16 337.418 481.16C337.071 481.16 336.771 481.033 336.518 480.78C336.264 480.527 336.138 480.227 336.138 479.88C336.138 479.533 336.264 479.24 336.518 479C336.771 478.747 337.071 478.62 337.418 478.62ZM102.13 492.72V505.4H103.95V510.76H102.23V507H92.4103V510.76H90.6903V505.4H91.7903C92.2703 504.573 92.7236 503.647 93.1503 502.62C93.5903 501.593 93.977 500.52 94.3103 499.4C94.6436 498.267 94.917 497.133 95.1303 496C95.3436 494.867 95.477 493.773 95.5303 492.72H102.13ZM97.1103 494.34C97.057 495.113 96.9236 495.987 96.7103 496.96C96.5103 497.933 96.2503 498.933 95.9303 499.96C95.6236 500.973 95.277 501.953 94.8903 502.9C94.517 503.847 94.117 504.68 93.6903 505.4H100.35V494.34H97.1103ZM110.238 496.08C111.158 496.08 111.945 496.28 112.598 496.68C113.265 497.08 113.772 497.647 114.118 498.38C114.478 499.1 114.658 499.947 114.658 500.92V501.98H107.318C107.345 503.193 107.652 504.12 108.238 504.76C108.838 505.387 109.672 505.7 110.738 505.7C111.418 505.7 112.018 505.64 112.538 505.52C113.072 505.387 113.618 505.2 114.178 504.96V506.5C113.632 506.74 113.092 506.913 112.558 507.02C112.025 507.14 111.392 507.2 110.658 507.2C109.645 507.2 108.745 506.993 107.958 506.58C107.185 506.167 106.578 505.553 106.138 504.74C105.712 503.913 105.498 502.907 105.498 501.72C105.498 500.547 105.692 499.54 106.078 498.7C106.478 497.86 107.032 497.213 107.738 496.76C108.458 496.307 109.292 496.08 110.238 496.08ZM110.218 497.52C109.378 497.52 108.712 497.793 108.218 498.34C107.738 498.873 107.452 499.62 107.358 500.58H112.818C112.805 499.673 112.592 498.94 112.178 498.38C111.765 497.807 111.112 497.52 110.218 497.52ZM125.548 507H123.768V497.74H120.608C120.434 499.993 120.194 501.813 119.888 503.2C119.581 504.573 119.174 505.573 118.668 506.2C118.161 506.827 117.521 507.14 116.748 507.14C116.574 507.14 116.401 507.127 116.228 507.1C116.068 507.087 115.934 507.053 115.828 507V505.68C115.908 505.707 115.994 505.727 116.088 505.74C116.181 505.753 116.274 505.76 116.368 505.76C117.088 505.76 117.661 504.993 118.088 503.46C118.528 501.927 118.861 499.533 119.088 496.28H125.548V507ZM133.01 496.1C134.317 496.1 135.283 496.387 135.91 496.96C136.537 497.533 136.85 498.447 136.85 499.7V507H135.57L135.23 505.48H135.15C134.683 506.067 134.19 506.5 133.67 506.78C133.163 507.06 132.457 507.2 131.55 507.2C130.577 507.2 129.77 506.947 129.13 506.44C128.49 505.92 128.17 505.113 128.17 504.02C128.17 502.953 128.59 502.133 129.43 501.56C130.27 500.973 131.563 500.653 133.31 500.6L135.13 500.54V499.9C135.13 499.007 134.937 498.387 134.55 498.04C134.163 497.693 133.617 497.52 132.91 497.52C132.35 497.52 131.817 497.607 131.31 497.78C130.803 497.94 130.33 498.127 129.89 498.34L129.35 497.02C129.817 496.767 130.37 496.553 131.01 496.38C131.65 496.193 132.317 496.1 133.01 496.1ZM133.53 501.82C132.197 501.873 131.27 502.087 130.75 502.46C130.243 502.833 129.99 503.36 129.99 504.04C129.99 504.64 130.17 505.08 130.53 505.36C130.903 505.64 131.377 505.78 131.95 505.78C132.857 505.78 133.61 505.533 134.21 505.04C134.81 504.533 135.11 503.76 135.11 502.72V501.76L133.53 501.82ZM148.841 491.84C148.748 492.84 148.408 493.6 147.821 494.12C147.248 494.627 146.328 494.88 145.061 494.88C143.754 494.88 142.828 494.627 142.281 494.12C141.748 493.613 141.448 492.853 141.381 491.84H143.021C143.088 492.56 143.274 493.047 143.581 493.3C143.901 493.54 144.408 493.66 145.101 493.66C145.714 493.66 146.194 493.533 146.541 493.28C146.901 493.013 147.114 492.533 147.181 491.84H148.841ZM141.821 502.82C141.821 502.98 141.814 503.22 141.801 503.54C141.788 503.86 141.768 504.18 141.741 504.5C141.728 504.82 141.714 505.073 141.701 505.26L147.441 496.28H149.601V507H147.961V500.68C147.961 500.467 147.961 500.187 147.961 499.84C147.974 499.493 147.988 499.153 148.001 498.82C148.014 498.473 148.028 498.213 148.041 498.04L142.341 507H140.161V496.28H141.821V502.82ZM158.952 496.28V500.74H164.772V496.28H166.532V507H164.772V502.22H158.952V507H157.192V496.28H158.952ZM173.987 496.1C175.293 496.1 176.26 496.387 176.887 496.96C177.513 497.533 177.827 498.447 177.827 499.7V507H176.547L176.207 505.48H176.127C175.66 506.067 175.167 506.5 174.647 506.78C174.14 507.06 173.433 507.2 172.527 507.2C171.553 507.2 170.747 506.947 170.107 506.44C169.467 505.92 169.147 505.113 169.147 504.02C169.147 502.953 169.567 502.133 170.407 501.56C171.247 500.973 172.54 500.653 174.287 500.6L176.107 500.54V499.9C176.107 499.007 175.913 498.387 175.527 498.04C175.14 497.693 174.593 497.52 173.887 497.52C173.327 497.52 172.793 497.607 172.287 497.78C171.78 497.94 171.307 498.127 170.867 498.34L170.327 497.02C170.793 496.767 171.347 496.553 171.987 496.38C172.627 496.193 173.293 496.1 173.987 496.1ZM174.507 501.82C173.173 501.873 172.247 502.087 171.727 502.46C171.22 502.833 170.967 503.36 170.967 504.04C170.967 504.64 171.147 505.08 171.507 505.36C171.88 505.64 172.353 505.78 172.927 505.78C173.833 505.78 174.587 505.533 175.187 505.04C175.787 504.533 176.087 503.76 176.087 502.72V501.76L174.507 501.82ZM195.678 496.28V507H181.138V496.28H182.898V505.52H187.518V496.28H189.278V505.52H193.918V496.28H195.678ZM214.786 496.28V507H213.206V500.16C213.206 499.88 213.213 499.587 213.226 499.28C213.253 498.973 213.279 498.673 213.306 498.38H213.246L209.746 507H208.266L204.866 498.38H204.806C204.846 498.98 204.866 499.593 204.866 500.22V507H203.286V496.28H205.626L209.006 504.9L212.446 496.28H214.786ZM219.868 502.82C219.868 502.98 219.861 503.22 219.848 503.54C219.834 503.86 219.814 504.18 219.788 504.5C219.774 504.82 219.761 505.073 219.748 505.26L225.488 496.28H227.648V507H226.008V500.68C226.008 500.467 226.008 500.187 226.008 499.84C226.021 499.493 226.034 499.153 226.048 498.82C226.061 498.473 226.074 498.213 226.088 498.04L220.388 507H218.208V496.28H219.868V502.82ZM236.159 496.08C237.479 496.08 238.539 496.54 239.339 497.46C240.153 498.38 240.559 499.767 240.559 501.62C240.559 503.447 240.153 504.833 239.339 505.78C238.539 506.727 237.473 507.2 236.139 507.2C235.313 507.2 234.626 507.047 234.079 506.74C233.546 506.42 233.126 506.053 232.819 505.64H232.699C232.726 505.867 232.753 506.153 232.779 506.5C232.806 506.847 232.819 507.147 232.819 507.4V511.8H231.059V496.28H232.499L232.739 497.74H232.819C233.139 497.273 233.559 496.88 234.079 496.56C234.599 496.24 235.293 496.08 236.159 496.08ZM235.839 497.56C234.746 497.56 233.973 497.867 233.519 498.48C233.079 499.093 232.846 500.027 232.819 501.28V501.62C232.819 502.94 233.033 503.96 233.459 504.68C233.899 505.387 234.706 505.74 235.879 505.74C236.533 505.74 237.066 505.56 237.479 505.2C237.906 504.84 238.219 504.353 238.419 503.74C238.633 503.113 238.739 502.4 238.739 501.6C238.739 500.373 238.499 499.393 238.019 498.66C237.553 497.927 236.826 497.56 235.839 497.56ZM255.704 507H253.924V497.74H250.764C250.59 499.993 250.35 501.813 250.044 503.2C249.737 504.573 249.33 505.573 248.824 506.2C248.317 506.827 247.677 507.14 246.904 507.14C246.73 507.14 246.557 507.127 246.384 507.1C246.224 507.087 246.09 507.053 245.984 507V505.68C246.064 505.707 246.15 505.727 246.244 505.74C246.337 505.753 246.43 505.76 246.524 505.76C247.244 505.76 247.817 504.993 248.244 503.46C248.684 501.927 249.017 499.533 249.244 496.28H255.704V507ZM257.426 496.28H259.306L261.626 502.38C261.826 502.913 262.006 503.427 262.166 503.92C262.326 504.4 262.446 504.86 262.526 505.3H262.606C262.686 504.967 262.813 504.533 262.986 504C263.16 503.453 263.34 502.907 263.526 502.36L265.706 496.28H267.606L262.986 508.48C262.613 509.493 262.126 510.3 261.526 510.9C260.94 511.5 260.126 511.8 259.086 511.8C258.766 511.8 258.486 511.78 258.246 511.74C258.006 511.713 257.8 511.68 257.626 511.64V510.24C257.773 510.267 257.946 510.293 258.146 510.32C258.36 510.347 258.58 510.36 258.806 510.36C259.42 510.36 259.913 510.187 260.286 509.84C260.673 509.493 260.973 509.033 261.186 508.46L261.746 507.04L257.426 496.28ZM270.842 500.18C270.842 501.407 271.528 502.02 272.902 502.02C273.568 502.02 274.175 501.92 274.722 501.72C275.268 501.507 275.828 501.227 276.402 500.88V496.28H278.162V507H276.402V502.22C275.802 502.607 275.208 502.913 274.622 503.14C274.048 503.353 273.355 503.46 272.542 503.46C271.448 503.46 270.595 503.173 269.982 502.6C269.382 502.027 269.082 501.26 269.082 500.3V496.28H270.842V500.18ZM296.107 496.28V507H281.567V496.28H283.327V505.52H287.947V496.28H289.707V505.52H294.347V496.28H296.107ZM303.676 496.08C304.596 496.08 305.383 496.28 306.036 496.68C306.703 497.08 307.209 497.647 307.556 498.38C307.916 499.1 308.096 499.947 308.096 500.92V501.98H300.756C300.783 503.193 301.089 504.12 301.676 504.76C302.276 505.387 303.109 505.7 304.176 505.7C304.856 505.7 305.456 505.64 305.976 505.52C306.509 505.387 307.056 505.2 307.616 504.96V506.5C307.069 506.74 306.529 506.913 305.996 507.02C305.463 507.14 304.829 507.2 304.096 507.2C303.083 507.2 302.183 506.993 301.396 506.58C300.623 506.167 300.016 505.553 299.576 504.74C299.149 503.913 298.936 502.907 298.936 501.72C298.936 500.547 299.129 499.54 299.516 498.7C299.916 497.86 300.469 497.213 301.176 496.76C301.896 496.307 302.729 496.08 303.676 496.08ZM303.656 497.52C302.816 497.52 302.149 497.793 301.656 498.34C301.176 498.873 300.889 499.62 300.796 500.58H306.256C306.243 499.673 306.029 498.94 305.616 498.38C305.203 497.807 304.549 497.52 303.656 497.52ZM315.465 504.62C315.811 504.62 316.105 504.747 316.345 505C316.598 505.24 316.725 505.533 316.725 505.88C316.725 506.227 316.598 506.527 316.345 506.78C316.105 507.033 315.811 507.16 315.465 507.16C315.118 507.16 314.818 507.033 314.565 506.78C314.311 506.527 314.185 506.227 314.185 505.88C314.185 505.533 314.311 505.24 314.565 505C314.818 504.747 315.118 504.62 315.465 504.62ZM315.465 496.62C315.811 496.62 316.105 496.747 316.345 497C316.598 497.24 316.725 497.533 316.725 497.88C316.725 498.227 316.598 498.527 316.345 498.78C316.105 499.033 315.811 499.16 315.465 499.16C315.118 499.16 314.818 499.033 314.565 498.78C314.311 498.527 314.185 498.227 314.185 497.88C314.185 497.533 314.311 497.24 314.565 497C314.818 496.747 315.118 496.62 315.465 496.62ZM324.421 501.96C324.421 503.987 323.981 505.8 323.101 507.4C322.221 509 320.968 510.28 319.341 511.24L318.261 509.94C319.634 509.127 320.688 508.033 321.421 506.66C322.154 505.273 322.521 503.707 322.521 501.96C322.521 500.213 322.154 498.653 321.421 497.28C320.688 495.893 319.634 494.8 318.261 494L319.341 492.7C320.968 493.66 322.221 494.94 323.101 496.54C323.981 498.127 324.421 499.933 324.421 501.96Z" fill="black"/>
</svg>
