<svg width="35" height="35" viewBox="0 0 35 35" fill="none" xmlns="http://www.w3.org/2000/svg">
<path d="M30.1441 5.38545C26.8407 1.93724 22.2701 -0.00875692 17.495 2.9626e-05C7.84497 -0.0121251 0.0121681 7.80124 1.38536e-05 17.4517C-0.00599003 22.2236 1.93971 26.7902 5.38521 30.0914C5.39524 30.1014 5.39897 30.1164 5.40893 30.1252C5.51012 30.2226 5.62009 30.3051 5.72259 30.3989C6.00375 30.6488 6.28491 30.9074 6.58108 31.1486C6.73974 31.2736 6.9047 31.3985 7.06717 31.5135C7.34708 31.7222 7.627 31.9309 7.91936 32.1234C8.11807 32.2483 8.32301 32.3733 8.52663 32.4982C8.79651 32.6607 9.06522 32.8244 9.34389 32.9731C9.58009 33.0981 9.8212 33.2055 10.0611 33.3192C10.3235 33.4442 10.5822 33.5691 10.8509 33.6816C11.1195 33.794 11.3895 33.8815 11.6618 33.979C11.9342 34.0765 12.1692 34.1665 12.4303 34.2464C12.7252 34.3352 13.0276 34.4038 13.3275 34.4776C13.5774 34.5388 13.8199 34.6088 14.0773 34.6588C14.4221 34.7275 14.7721 34.7713 15.122 34.8188C15.3382 34.8488 15.5493 34.8913 15.768 34.9125C16.3403 34.9687 16.9176 35 17.4999 35C18.0822 35 18.6595 34.9687 19.2318 34.9125C19.4505 34.8913 19.6616 34.8488 19.8778 34.8188C20.2277 34.7713 20.5775 34.7275 20.9225 34.6588C21.1723 34.6088 21.4223 34.5338 21.6722 34.4776C21.9721 34.4038 22.2745 34.3351 22.5694 34.2464C22.8306 34.1665 23.083 34.069 23.3379 33.979C23.5929 33.889 23.8827 33.7916 24.1489 33.6816C24.415 33.5716 24.6762 33.4429 24.9386 33.3192C25.1785 33.2055 25.4197 33.098 25.6559 32.9731C25.9345 32.8244 26.2032 32.6607 26.4731 32.4982C26.6768 32.3733 26.8818 32.2595 27.0804 32.1234C27.3728 31.9309 27.6527 31.7223 27.9326 31.5135C28.095 31.3885 28.2599 31.276 28.4187 31.1486C28.7148 30.9112 28.996 30.6588 29.2772 30.3989C29.3796 30.3051 29.4896 30.2227 29.5908 30.1252C29.6008 30.1164 29.6046 30.1014 29.6145 30.0914C36.583 23.4152 36.82 12.354 30.1441 5.38545ZM27.3356 28.783C27.1081 28.983 26.8732 29.1729 26.6358 29.3566C26.4959 29.4641 26.3559 29.5703 26.2122 29.6728C25.986 29.8365 25.7561 29.9914 25.5224 30.1402C25.3524 30.2489 25.1788 30.3538 25.0038 30.4563C24.7838 30.5813 24.5601 30.7062 24.334 30.8312C24.134 30.9337 23.9303 31.0299 23.7255 31.1249C23.5206 31.2199 23.2944 31.3211 23.0732 31.4098C22.852 31.4986 22.6171 31.5823 22.3859 31.6597C22.1747 31.7322 21.9635 31.8072 21.7498 31.8709C21.4999 31.9459 21.2388 32.0071 20.9801 32.0696C20.7776 32.1171 20.5777 32.1708 20.3728 32.2109C20.0766 32.2683 19.7742 32.3083 19.4706 32.3495C19.2982 32.372 19.127 32.4033 18.9533 32.4208C18.4734 32.467 17.9873 32.4945 17.4962 32.4945C17.0051 32.4945 16.519 32.4671 16.0392 32.4208C15.8655 32.4033 15.6943 32.372 15.5218 32.3495C15.2182 32.3083 14.9158 32.2683 14.6196 32.2109C14.4147 32.1709 14.2147 32.1171 14.0123 32.0696C13.7537 32.0072 13.4962 31.9446 13.2426 31.8709C13.029 31.8072 12.8177 31.7322 12.6066 31.6597C12.3754 31.5798 12.1442 31.4985 11.9193 31.4098C11.6943 31.3211 11.4819 31.2236 11.267 31.1249C11.052 31.0262 10.8583 30.9337 10.6584 30.8312C10.4323 30.7138 10.2086 30.59 9.98865 30.4563C9.81373 30.3539 9.63998 30.2489 9.47004 30.1402C9.2364 29.9914 9.00643 29.8365 8.78026 29.6728C8.63653 29.5704 8.49661 29.4641 8.35662 29.3566C8.11917 29.1729 7.88429 28.9817 7.65687 28.783C7.60188 28.7418 7.55188 28.6893 7.49821 28.6418C7.55407 24.3908 10.2849 20.6371 14.3122 19.2757C16.326 20.2336 18.664 20.2336 20.6777 19.2757C24.705 20.6371 27.4358 24.3907 27.4917 28.6418C27.4392 28.6893 27.3892 28.7368 27.3356 28.783ZM13.1375 10.0195C14.4905 7.61313 17.5379 6.7593 19.9442 8.11236C22.3504 9.46541 23.2042 12.513 21.8512 14.9193C21.4023 15.7177 20.7426 16.3774 19.9442 16.8264C19.938 16.8264 19.9304 16.8264 19.923 16.8339C19.5916 17.0183 19.2414 17.1667 18.8783 17.2763C18.8133 17.295 18.7533 17.32 18.6846 17.3363C18.5596 17.3688 18.4284 17.3912 18.2997 17.4137C18.0574 17.4561 17.8121 17.4807 17.5662 17.4875H17.4237C17.1778 17.4807 16.9326 17.4561 16.6902 17.4137C16.5652 17.3912 16.4328 17.3688 16.3054 17.3363C16.2391 17.32 16.1804 17.295 16.1117 17.2763C15.7486 17.1667 15.3984 17.0184 15.0671 16.8339L15.0446 16.8264C12.6383 15.4734 11.7845 12.4258 13.1375 10.0195ZM29.7085 26.1638C28.9066 22.4234 26.4437 19.2525 23.0182 17.5501C25.8184 14.4996 25.6156 9.75654 22.5652 6.95619C19.5149 4.15585 14.7721 4.35867 11.9718 7.40914C9.33935 10.2769 9.33935 14.6824 11.9718 17.5501C8.54632 19.2525 6.08341 22.4234 5.28153 26.1638C0.489843 19.4141 2.07692 10.0577 8.82638 5.26581C15.5758 0.473917 24.9318 2.06106 29.7235 8.81081C31.5247 11.3482 32.4916 14.3832 32.4901 17.495C32.4901 20.604 31.5175 23.6352 29.7085 26.1638Z" fill="#858585"/>
</svg>
