<svg width="35" height="35" viewBox="0 0 35 35" fill="none" xmlns="http://www.w3.org/2000/svg">
<path d="M34.3579 12.4593C33.9578 12.0103 33.4111 11.7183 32.8155 11.6354V11.6342L23.5128 10.3492L19.8314 1.55355C19.2939 0.26611 17.8144 -0.341834 16.5269 0.195656C15.9131 0.451914 15.4251 0.939821 15.1689 1.55355L11.4875 10.3492L2.18477 11.6342C0.798771 11.8271 -0.168419 13.1071 0.0245065 14.4929C0.107419 15.0885 0.399444 15.6351 0.848431 16.0352L7.85739 22.2847L6.41726 32.0915C6.26125 33.0873 6.71866 34.0795 7.57731 34.6076C8.42386 35.1489 9.51278 35.1287 10.3386 34.5563L17.5001 29.6866L24.6615 34.5613C25.8171 35.3455 27.3897 35.0446 28.1741 33.8891C28.5305 33.364 28.6765 32.7241 28.5829 32.0965L27.1429 22.2859L34.1519 16.0363C35.1966 15.1055 35.2889 13.5039 34.3579 12.4593ZM24.9753 20.8735C24.6617 21.1536 24.5101 21.5726 24.5715 21.9885L26.0715 32.4878L18.2064 27.1407C17.7824 26.8525 17.2253 26.8525 16.8013 27.1407L8.88984 32.4553L10.4286 21.9835C10.4884 21.5693 10.3368 21.1526 10.0248 20.8736L2.52463 14.114L12.5349 12.7328C12.9732 12.6724 13.3468 12.3848 13.5174 11.9766L17.515 2.49978C17.5196 2.50534 17.5229 2.51172 17.525 2.51853L21.4814 11.9717C21.652 12.3798 22.0257 12.6674 22.4639 12.7278L32.4867 14.1702L24.9753 20.8735Z" fill="#858585"/>
</svg>
