<svg width="35" height="35" viewBox="0 0 35 35" fill="none" xmlns="http://www.w3.org/2000/svg">
<path d="M33.9062 9.84375C33.3022 9.84375 32.8125 9.35402 32.8125 8.75V3.14453C32.8125 2.6168 32.3832 2.1875 31.8555 2.1875H26.25C25.6459 2.1875 25.1562 1.69777 25.1562 1.09375C25.1562 0.489727 25.6459 0 26.25 0H31.8555C33.5893 0 35 1.41066 35 3.14453V8.75C35 9.35402 34.5103 9.84375 33.9062 9.84375Z" fill="#858585"/>
<path d="M1.09375 9.84375C0.489658 9.84375 0 9.35402 0 8.75V3.14453C0 1.41066 1.41066 0 3.14453 0H8.75C9.35409 0 9.84375 0.489727 9.84375 1.09375C9.84375 1.69777 9.35409 2.1875 8.75 2.1875H3.14453C2.6168 2.1875 2.1875 2.6168 2.1875 3.14453V8.75C2.1875 9.35402 1.69784 9.84375 1.09375 9.84375Z" fill="#858585"/>
<path d="M8.75 35H3.14453C1.41066 35 0 33.5893 0 31.8555V26.25C0 25.646 0.489658 25.1562 1.09375 25.1562C1.69784 25.1562 2.1875 25.646 2.1875 26.25V31.8555C2.1875 32.3832 2.6168 32.8125 3.14453 32.8125H8.75C9.35409 32.8125 9.84375 33.3022 9.84375 33.9062C9.84375 34.5103 9.35409 35 8.75 35Z" fill="#858585"/>
<path d="M31.8555 35H26.25C25.6459 35 25.1562 34.5103 25.1562 33.9062C25.1562 33.3022 25.6459 32.8125 26.25 32.8125H31.8555C32.3832 32.8125 32.8125 32.3832 32.8125 31.8555V26.25C32.8125 25.646 33.3022 25.1562 33.9062 25.1562C34.5103 25.1562 35 25.646 35 26.25V31.8555C35 33.5893 33.5893 35 31.8555 35Z" fill="#858585"/>
<path d="M13.2617 16.4062H7.51953C5.78566 16.4062 4.375 14.9956 4.375 13.2617V7.51953C4.375 5.78566 5.78566 4.375 7.51953 4.375H13.2617C14.9956 4.375 16.4062 5.78566 16.4062 7.51953V13.2617C16.4062 14.9956 14.9956 16.4062 13.2617 16.4062ZM7.51953 6.5625C6.9918 6.5625 6.5625 6.9918 6.5625 7.51953V13.2617C6.5625 13.7895 6.9918 14.2188 7.51953 14.2188H13.2617C13.7895 14.2188 14.2188 13.7895 14.2188 13.2617V7.51953C14.2188 6.9918 13.7895 6.5625 13.2617 6.5625H7.51953Z" fill="#858585"/>
<path d="M13.2617 30.625H7.51953C5.78566 30.625 4.375 29.2143 4.375 27.4805V21.7383C4.375 20.0044 5.78566 18.5938 7.51953 18.5938H13.2617C14.9956 18.5938 16.4062 20.0044 16.4062 21.7383V27.4805C16.4062 29.2143 14.9956 30.625 13.2617 30.625ZM7.51953 20.7812C6.9918 20.7812 6.5625 21.2105 6.5625 21.7383V27.4805C6.5625 28.0082 6.9918 28.4375 7.51953 28.4375H13.2617C13.7895 28.4375 14.2188 28.0082 14.2188 27.4805V21.7383C14.2188 21.2105 13.7895 20.7812 13.2617 20.7812H7.51953Z" fill="#858585"/>
<path d="M27.4805 16.4062H21.7383C20.0044 16.4062 18.5938 14.9956 18.5938 13.2617V7.51953C18.5938 5.78566 20.0044 4.375 21.7383 4.375H27.4805C29.2143 4.375 30.625 5.78566 30.625 7.51953V13.2617C30.625 14.9956 29.2143 16.4062 27.4805 16.4062ZM21.7383 6.5625C21.2105 6.5625 20.7812 6.9918 20.7812 7.51953V13.2617C20.7812 13.7895 21.2105 14.2188 21.7383 14.2188H27.4805C28.0082 14.2188 28.4375 13.7895 28.4375 13.2617V7.51953C28.4375 6.9918 28.0082 6.5625 27.4805 6.5625H21.7383Z" fill="#858585"/>
<path d="M28.8477 24.0625H26.25V20.3711C26.25 19.3911 25.4527 18.5938 24.4727 18.5938H20.3711C19.391 18.5938 18.5938 19.3911 18.5938 20.3711V24.4727C18.5938 25.4527 19.391 26.25 20.3711 26.25H24.0625V28.8477C24.0625 29.8277 24.8598 30.625 25.8398 30.625H28.8477C29.8277 30.625 30.625 29.8277 30.625 28.8477V25.8398C30.625 24.8598 29.8277 24.0625 28.8477 24.0625ZM20.7812 20.7812H24.0625V24.0625H20.7812V20.7812ZM28.4375 28.4375H26.25V26.25H28.4375V28.4375Z" fill="#858585"/>
<path d="M10.9375 12.0312H9.84375C9.23966 12.0312 8.75 11.5415 8.75 10.9375V9.84375C8.75 9.23973 9.23966 8.75 9.84375 8.75H10.9375C11.5416 8.75 12.0312 9.23973 12.0312 9.84375V10.9375C12.0312 11.5415 11.5416 12.0312 10.9375 12.0312Z" fill="#858585"/>
<path d="M25.1562 12.0312H24.0625C23.4584 12.0312 22.9688 11.5415 22.9688 10.9375V9.84375C22.9688 9.23973 23.4584 8.75 24.0625 8.75H25.1562C25.7603 8.75 26.25 9.23973 26.25 9.84375V10.9375C26.25 11.5415 25.7603 12.0312 25.1562 12.0312Z" fill="#858585"/>
<path d="M10.9375 26.25H9.84375C9.23966 26.25 8.75 25.7603 8.75 25.1562V24.0625C8.75 23.4585 9.23966 22.9688 9.84375 22.9688H10.9375C11.5416 22.9688 12.0312 23.4585 12.0312 24.0625V25.1562C12.0312 25.7603 11.5416 26.25 10.9375 26.25Z" fill="#858585"/>
</svg>
